<?xml version="1.0" encoding="iso-8859-1"?>
<!-- Generator: Adobe Illustrator 19.0.0, SVG Export Plug-In . SVG Version: 6.00 Build 0)  -->
<svg version="1.1" id="Layer_1" xmlns="http://www.w3.org/2000/svg" xmlns:xlink="http://www.w3.org/1999/xlink" x="0px" y="0px"
	 viewBox="0 0 511.238 511.238" style="enable-background:new 0 0 511.238 511.238;" xml:space="preserve">
<path style="fill:#FFFFFF;" d="M485.6,28.019H26.4c-5.6,0-10.4,5.6-10.4,11.2v314.4c0,5.6,4.8,10.4,10.4,10.4h242.4h5.6l4,3.2
	l124.8,99.2v-85.6v-16h16H484c5.6,0,10.4-4.8,10.4-10.4v-315.2C496,33.619,491.2,28.019,485.6,28.019z"/>
<path style="fill:#BFBFBF;" d="M485.6,12.019H26.4c-14.4,0-26.4,12-26.4,27.2v314.4c0,14.4,12,26.4,26.4,26.4h242.4l151.2,119.2
	v-118.4h64.8c14.4,0,26.4-12,26.4-26.4v-315.2C512,24.019,500,12.019,485.6,12.019z M496,353.619c0,5.6-4.8,10.4-10.4,10.4h-64.8
	h-16v16v86.4l-125.6-98.4l-4-3.2h-5.6H26.4c-5.6,0-10.4-4.8-10.4-10.4v-315.2c0-5.6,4.8-10.4,10.4-10.4h458.4
	c5.6,0,10.4,4.8,10.4,10.4v314.4H496z"/>
<circle style="fill:#C7CAC7;" cx="144.8" cy="196.019" r="87.2"/>
<path d="M104.8,208.819c0,21.6,17.6,39.2,39.2,39.2s39.2-17.6,39.2-39.2H104.8z"/>
<circle cx="113.6" cy="171.219" r="15.2"/>
<circle cx="176" cy="171.219" r="15.2"/>
<circle style="fill:#FFEAEA;" cx="367.2" cy="196.019" r="87.2"/>
<path d="M328,208.819c0,21.6,17.6,39.2,39.2,39.2s39.2-17.6,39.2-39.2H328z"/>
<circle cx="336" cy="171.219" r="15.2"/>
<circle cx="398.4" cy="171.219" r="15.2"/>
<g>
</g>
<g>
</g>
<g>
</g>
<g>
</g>
<g>
</g>
<g>
</g>
<g>
</g>
<g>
</g>
<g>
</g>
<g>
</g>
<g>
</g>
<g>
</g>
<g>
</g>
<g>
</g>
<g>
</g>
</svg>
