<?xml version="1.0" encoding="iso-8859-1"?>
<!-- Generator: Adobe Illustrator 19.0.0, SVG Export Plug-In . SVG Version: 6.00 Build 0)  -->
<svg version="1.1" id="Layer_1" xmlns="http://www.w3.org/2000/svg" xmlns:xlink="http://www.w3.org/1999/xlink" x="0px" y="0px"
	 viewBox="0 0 309.142 309.142" style="enable-background:new 0 0 309.142 309.142;" xml:space="preserve">
<g>
	<path style="fill:#FB7598;" d="M154.571,0C69.662,0,0.83,68.831,0.83,153.741c0,38.283,13.997,73.295,37.147,100.207
		c-6.953,19.986-19.807,37.209-36.479,49.581c10.592,3.619,21.938,5.613,33.757,5.613c20.214,0,39.082-5.751,55.067-15.698
		c19.551,9.007,41.311,14.039,64.249,14.039c84.909,0,153.741-68.833,153.741-153.742C308.313,68.831,239.481,0,154.571,0z"/>
	<path style="fill:#FFFFFF;" d="M154.572,107.039c-16.207-16.207-42.483-16.207-58.69-0.001c-16.207,16.207-16.207,42.484,0,58.691
		l58.689,58.689l58.69-58.691c16.207-16.207,16.208-42.483,0.001-58.69C197.055,90.831,170.778,90.832,154.572,107.039z"/>
</g>
<g>
</g>
<g>
</g>
<g>
</g>
<g>
</g>
<g>
</g>
<g>
</g>
<g>
</g>
<g>
</g>
<g>
</g>
<g>
</g>
<g>
</g>
<g>
</g>
<g>
</g>
<g>
</g>
<g>
</g>
</svg>
