<?xml version="1.0" ?><!DOCTYPE svg  PUBLIC '-//W3C//DTD SVG 1.1//EN'  'http://www.w3.org/Graphics/SVG/1.1/DTD/svg11.dtd'><svg enable-background="new 0 0 128 128" id="Слой_1" version="1.1" viewBox="0 0 128 128" xml:space="preserve" xmlns="http://www.w3.org/2000/svg" xmlns:xlink="http://www.w3.org/1999/xlink"><g><g><g><circle cx="68.9" cy="78.5" fill="#D5D5E2" r="45.5"/><g><path d="M68.9,125.5c-25.9,0-47-21.1-47-47s21.1-47,47-47s47,21.1,47,47S94.8,125.5,68.9,125.5z M68.9,34.6      c-24.2,0-44,19.7-44,44s19.7,44,44,44s44-19.7,44-44S93.1,34.6,68.9,34.6z" fill="#4A374F"/></g><path d="M68.9,114.9c-20.1,0-36.4-16.3-36.4-36.4s16.3-36.4,36.4-36.4c20.1,0,36.4,16.3,36.4,36.4     S89,114.9,68.9,114.9z" fill="#F1D5D5"/><g><path d="M68.9,116.4C48,116.4,31,99.4,31,78.5s17-37.9,37.9-37.9s37.9,17,37.9,37.9S89.8,116.4,68.9,116.4z       M68.9,43.7C49.7,43.7,34,59.3,34,78.5s15.6,34.9,34.9,34.9s34.9-15.6,34.9-34.9S88.1,43.7,68.9,43.7z" fill="#4A374F"/></g></g></g><g><g><g><g><path d="M33,70.9v1h1.4C34.2,71.4,33.7,71,33,70.9z" fill="#E2BF50"/></g></g></g></g><g><path d="M33.4,124L33.4,124c-5.5,0-10-4.5-10-10V54h20v60C43.4,119.5,38.9,124,33.4,124z" fill="#908F99"/><path d="M43.4,54h-20l-7.5-26.9C12.6,15.5,21.3,4,33.4,4h0c12.1,0,20.8,11.5,17.5,23.1L43.4,54z" fill="#F4D9C5"/><rect fill="#B8E1D7" height="20" width="20" x="23.4" y="54"/><path d="M28.4,114V54l-7.5-26.9c-3-10.8,4.3-21.5,15-22.9C35,4.1,34.2,4,33.4,4    C21.3,4,12.6,15.5,15.8,27.1L23.4,54v60c0,5.5,4.5,10,10,10c0.9,0,1.7-0.1,2.5-0.3C31.5,122.6,28.4,118.7,28.4,114z" fill="#060808" opacity="0.1"/><path d="M49.1,10.3c-3.8-5-9.5-7.8-15.7-7.8s-11.9,2.8-15.7,7.8c-3.8,5-5,11.2-3.3,17.2l7.5,26.7V114    c0,6.3,5.2,11.5,11.5,11.5s11.5-5.2,11.5-11.5V54.2l7.5-26.7C54,21.5,52.8,15.3,49.1,10.3z M41.9,55.5v17h-17v-17H41.9z     M33.4,122.5c-4.7,0-8.5-3.8-8.5-8.5V75.5h17V114C41.9,118.7,38,122.5,33.4,122.5z M49.4,26.7l-7.2,25.8h-1.7l2.4-25.2    c0.1-0.8-0.5-1.6-1.4-1.6c-0.8-0.1-1.6,0.5-1.6,1.4l-2.4,25.5h-2.6V27c0-0.8-0.7-1.5-1.5-1.5s-1.5,0.7-1.5,1.5v25.5h-2.1L27.3,27    c-0.1-0.8-0.8-1.4-1.6-1.4c-0.8,0.1-1.4,0.8-1.4,1.6l2.4,25.2h-2.2l-7.2-25.8c-1.4-5.1-0.4-10.4,2.8-14.6s8-6.6,13.3-6.6    s10.1,2.4,13.3,6.6S50.9,21.6,49.4,26.7z" fill="#4A374F"/></g></g></svg>
